<svg width="50" height="50" viewBox="0 0 50 50" fill="none" xmlns="http://www.w3.org/2000/svg">
<g clip-path="url(#clip0_1061_29975)">
<circle cx="25" cy="25" r="25" fill="#F15249"/>
<path fill-rule="evenodd" clip-rule="evenodd" d="M28.1104 49.8083L15.8496 37.5411L37.5501 15.8521L49.8074 28.1159C48.4004 39.4334 39.4287 48.4036 28.1104 49.8083Z" fill="#AE0F0F"/>
<path d="M37.2873 15.8272C37.902 16.8778 38.0566 17.9568 37.4379 19.0534C37.258 19.3723 36.9989 19.6564 36.7374 19.9177C35.1292 21.5244 33.5092 23.1193 31.8958 24.7208C31.7722 24.8435 31.669 24.9866 31.5232 25.158C31.3862 25.2705 31.2699 25.3327 31.1803 25.4218C29.2607 27.3318 27.3433 29.2439 25.4296 31.1598C25.3319 31.2577 25.272 31.3934 25.1946 31.5116C25.052 31.603 24.8881 31.6728 24.77 31.789C23.1509 33.3828 21.4916 34.9393 19.9376 36.5945C18.535 38.0885 16.4737 38.1386 15.1377 36.5882C15.0638 36.5025 14.9788 36.4263 14.8703 36.3265C14.363 35.8226 13.883 35.3392 13.406 34.8529C12.1141 33.5362 12.1138 31.7878 13.4191 30.4733C15.0701 28.8107 16.7314 27.1584 18.3876 25.5009C18.5117 25.3767 18.63 25.2466 18.7702 25.0989C18.6323 24.9527 18.5151 24.8222 18.3912 24.6982C16.7582 23.0637 15.1227 21.4315 13.4908 19.7958C12.0779 18.3796 12.0848 16.6678 13.5056 15.2424C14.1374 14.6086 14.7675 13.973 15.4046 13.3445C16.7434 12.0238 18.4875 12.0221 19.8201 13.3556C21.4649 15.0014 23.0966 16.6603 24.7317 18.3158C24.8569 18.4425 24.9639 18.5872 25.1083 18.7578C25.2843 18.5912 25.4122 18.4756 25.534 18.3539C27.157 16.7324 28.7778 15.1086 30.4021 13.4883C31.8029 12.0909 33.523 12.0895 34.9223 13.4708C35.638 14.1773 36.3663 14.8711 37.1031 15.6267C37.1469 15.6996 37.1766 15.7165 37.2062 15.7333C37.2062 15.7333 37.2059 15.7245 37.2043 15.7548C37.2353 15.8015 37.2678 15.818 37.3003 15.8345C37.3003 15.8345 37.2928 15.8236 37.2873 15.8272Z" fill="white"/>
<path d="M37.1981 15.7111C37.176 15.7164 37.1464 15.6995 37.1191 15.6554C37.1515 15.6405 37.1745 15.6608 37.1981 15.7111Z" fill="#AE0F0F"/>
<path d="M37.2943 15.8069C37.2671 15.8179 37.2346 15.8014 37.1992 15.755C37.2272 15.7432 37.2581 15.7613 37.2943 15.8069Z" fill="#AE0F0F"/>
<path d="M49.8345 28.9941C49.8129 28.8335 49.827 28.6535 49.8618 28.4414C49.8785 28.5978 49.8744 28.7862 49.8345 28.9941Z" fill="#F15249"/>
<path d="M29.5312 49.7091C29.6633 49.6708 29.8358 49.6326 30.0484 49.5994C29.9162 49.6393 29.744 49.6742 29.5312 49.7091Z" fill="#F15249"/>
<path d="M49.7392 29.4832C49.7159 29.3822 49.7263 29.2624 49.7586 29.1133C49.7778 29.2108 49.7754 29.3377 49.7392 29.4832Z" fill="#F15249"/>
<path d="M30.1934 49.5953C30.2419 49.558 30.3263 49.5305 30.4448 49.5061C30.3957 49.5412 30.3125 49.5732 30.1934 49.5953Z" fill="#F15249"/>
<path d="M25.2051 31.544C25.2709 31.3935 25.3307 31.2577 25.4284 31.1598C27.3421 29.2439 29.2596 27.3318 31.1791 25.4219C31.2687 25.3327 31.385 25.2705 31.5232 25.1914C32.4293 26.0351 33.3041 26.8799 34.1719 27.732C35.0647 28.6086 35.9559 29.487 36.8382 30.3741C38.1598 31.7028 38.1751 33.4435 36.8725 34.7924C36.2067 35.482 35.5273 36.1591 34.8392 36.8267C33.5245 38.1022 31.812 38.1129 30.5079 36.8332C28.7334 35.0919 26.9795 33.3296 25.2051 31.544Z" fill="#D6D5D5"/>
</g>
<defs>
<clipPath id="clip0_1061_29975">
<rect width="50" height="50" fill="white"/>
</clipPath>
</defs>
</svg>
