<svg width="50" height="50" viewBox="0 0 50 50" fill="none" xmlns="http://www.w3.org/2000/svg">
<g clip-path="url(#clip0_1061_29990)">
<path d="M25 50C38.8071 50 50 38.8071 50 25C50 11.1929 38.8071 0 25 0C11.1929 0 0 11.1929 0 25C0 38.8071 11.1929 50 25 50Z" fill="#32BA7C"/>
<path d="M18.6113 36.2775L31.4662 49.1324C42.1129 46.2933 49.9993 36.593 49.9993 24.9999C49.9993 24.7633 49.9993 24.5267 49.9993 24.2901L39.9047 14.9841L18.6113 36.2775Z" fill="#0AA06E"/>
<path d="M25.6303 30.5995C26.7344 31.7036 26.7344 33.5963 25.6303 34.7004L23.3432 36.9875C22.2391 38.0916 20.3464 38.0916 19.2423 36.9875L9.22651 26.8928C8.12241 25.7887 8.12241 23.896 9.22651 22.7919L11.5136 20.5048C12.6177 19.4007 14.5104 19.4007 15.6145 20.5048L25.6303 30.5995Z" fill="white"/>
<path d="M34.3833 13.1704C35.4874 12.0663 37.3802 12.0663 38.4843 13.1704L40.7713 15.4574C41.8754 16.5615 41.8754 18.4543 40.7713 19.5584L23.4212 36.8297C22.3171 37.9338 20.4243 37.9338 19.3202 36.8297L17.0332 34.5426C15.9291 33.4385 15.9291 31.5458 17.0332 30.4417L34.3833 13.1704Z" fill="white"/>
</g>
<defs>
<clipPath id="clip0_1061_29990">
<rect width="50" height="50" fill="white"/>
</clipPath>
</defs>
</svg>
